<?xml version="1.0" standalone="no"?>
<!DOCTYPE svg PUBLIC "-//W3C//DTD SVG 20010904//EN"
 "http://www.w3.org/TR/2001/REC-SVG-20010904/DTD/svg10.dtd">
<svg version="1.0" xmlns="http://www.w3.org/2000/svg"
 width="260.000000pt" height="260.000000pt" viewBox="0 0 260.000000 260.000000"
 preserveAspectRatio="xMidYMid meet">
<metadata>
Created by potrace 1.11, written by Peter Selinger 2001-2013
</metadata>
<g transform="translate(0.000000,260.000000) scale(0.100000,-0.100000)"
fill="#000000" stroke="none">
<path d="M408 2115 c-177 -37 -226 -122 -231 -395 l-2 -85 -70 -1 c-38 -1 -75
-2 -81 -3 -6 -1 -11 -30 -11 -71 l-1 -70 83 0 82 0 1 -452 c0 -249 1 -468 1
-486 l1 -33 88 3 87 3 2 470 c1 259 2 476 2 483 1 9 37 12 144 12 l144 0 0 69
c0 55 -4 70 -16 73 -9 2 -73 3 -143 3 -84 -1 -128 3 -129 9 -1 6 -1 61 -1 122
1 189 25 217 186 220 l101 1 2 54 c2 89 4 87 -95 87 -48 -1 -112 -6 -144 -13z"/>
<path d="M1308 1634 c-82 -19 -150 -57 -190 -104 -19 -22 -37 -40 -39 -40 -2
0 -3 32 -3 70 l1 71 -86 -3 -86 -3 0 -550 0 -550 67 -5 c115 -9 104 -45 104
344 -1 206 3 365 10 405 29 169 115 233 314 233 155 -1 215 -33 237 -127 7
-29 11 -200 11 -447 1 -220 3 -403 6 -405 6 -6 157 -5 163 1 3 2 5 166 5 364
1 378 5 441 36 501 22 42 82 86 132 97 19 4 42 9 50 11 37 9 189 4 229 -7 54
-14 95 -56 108 -109 6 -23 11 -208 11 -446 0 -224 2 -408 4 -410 4 -4 77 -7
134 -6 l40 1 -1 433 c-1 399 -2 436 -20 482 -33 88 -69 131 -138 164 -74 36
-96 41 -209 48 -153 9 -276 -32 -364 -123 -48 -48 -53 -52 -59 -33 -10 32 -65
88 -105 109 -92 47 -250 62 -362 34z"/>
</g>
</svg>
