<?xml version="1.0" standalone="no"?>
<!DOCTYPE svg PUBLIC "-//W3C//DTD SVG 20010904//EN"
 "http://www.w3.org/TR/2001/REC-SVG-20010904/DTD/svg10.dtd">
<svg version="1.0" xmlns="http://www.w3.org/2000/svg"
 width="1024.000000pt" height="1024.000000pt" viewBox="0 0 1024.000000 1024.000000"
 preserveAspectRatio="xMidYMid meet">
<metadata>
Created by potrace 1.14, written by Peter Selinger 2001-2017
</metadata>
<g transform="translate(0.000000,1024.000000) scale(0.100000,-0.100000)"
fill="#000000" stroke="none">
<path d="M1820 8601 c-8 -5 -44 -12 -80 -16 -141 -15 -242 -37 -420 -95 -14
-4 -59 -24 -100 -45 -223 -112 -373 -283 -456 -520 -10 -27 -21 -54 -24 -60
-18 -24 -59 -295 -70 -450 -7 -95 -10 -304 -8 -473 l3 -302 -327 0 -328 0 0
-305 0 -305 328 0 327 0 -3 -1935 -2 -1935 370 0 370 0 -2 1935 -3 1935 567 0
c311 0 573 3 582 6 14 5 16 42 16 305 l0 299 -582 0 -583 0 6 452 c5 430 6
458 28 543 32 123 66 191 126 251 105 106 256 143 575 142 134 0 265 -8 383
-24 l47 -6 0 306 0 306 -362 0 c-200 0 -370 -4 -378 -9z"/>
<path d="M5378 6679 c-2 -6 -35 -15 -73 -20 -122 -15 -180 -29 -330 -80 -55
-18 -107 -39 -116 -46 -8 -7 -20 -13 -25 -13 -18 0 -111 -49 -186 -96 -89 -57
-273 -240 -328 -326 l-40 -63 0 281 c0 226 -3 284 -14 293 -9 8 -110 11 -352
9 l-339 -3 -3 -2227 -2 -2228 355 0 355 0 0 1378 c0 1317 1 1383 20 1522 11
80 22 156 26 170 34 151 66 245 115 344 101 202 259 345 456 411 43 15 82 30
88 35 5 4 26 10 45 13 19 3 71 12 115 21 157 29 391 37 605 21 107 -8 220 -19
250 -25 140 -24 124 -19 250 -79 78 -37 106 -62 152 -128 36 -52 87 -189 106
-283 30 -150 32 -256 32 -1812 l0 -1588 365 0 365 0 4 1478 c2 878 8 1509 14
1557 44 363 130 540 327 676 74 51 140 84 230 113 44 15 89 31 100 36 19 8 31
11 145 30 30 5 141 17 247 26 176 15 209 15 390 0 231 -19 327 -34 388 -61 17
-7 56 -25 88 -40 75 -33 158 -111 190 -178 48 -103 56 -123 71 -192 48 -217
46 -127 46 -1838 l0 -1607 365 0 365 0 0 1709 c0 1021 -4 1712 -9 1715 -5 4
-12 25 -16 49 -9 63 -26 139 -36 162 -5 11 -20 56 -35 100 -14 44 -32 90 -40
102 -8 12 -14 29 -14 38 0 8 -4 15 -10 15 -5 0 -10 4 -10 10 0 17 -88 152
-140 215 -50 60 -132 131 -199 172 -112 69 -283 143 -328 143 -12 0 -24 4 -27
9 -11 17 -119 40 -284 60 -41 5 -79 14 -85 20 -15 15 -704 16 -709 0 -2 -6
-35 -15 -73 -20 -127 -16 -238 -40 -273 -58 -9 -5 -51 -19 -92 -32 -41 -12
-82 -29 -91 -36 -8 -7 -20 -13 -25 -13 -15 0 -100 -43 -164 -82 -156 -95 -311
-242 -414 -392 -36 -53 -47 -63 -52 -49 -12 42 -80 163 -126 225 -108 147
-308 288 -493 348 -39 13 -79 26 -90 31 -50 21 -157 44 -270 58 -38 5 -71 14
-73 20 -3 8 -106 11 -342 11 -236 0 -339 -3 -342 -11z"/>
</g>
</svg>
