 <svg version="1.2" xmlns="http://www.w3.org/2000/svg" viewBox="0 0 1577 398" width="150" height="38">
                <title>filtermusic.net radio Microsoft Store app</title>
                <defs>
                    <clipPath clipPathUnits="userSpaceOnUse" id="cp1">
                        <path d="m0.06 402.56v-409.61h1576.96v409.61" />
                    </clipPath>
                    <clipPath clipPathUnits="userSpaceOnUse" id="cp2">
                        <path d="m0.06 402.56v-409.61h1576.96v409.61" />
                    </clipPath>
                </defs>
                <style>
                    tspan {
                        white-space: pre
                    }

                    .t0 {
                        font-size: 7px;
                        fill: #ffffff;
                        font-family: "Segoe Pro"
                    }

                    .s1 {
                        fill: #288845
                    }

                    .s2 {
                        fill: #fefefe
                    }

                    .s3 {
                        fill: #8d2ba0
                    }
                </style>
                <g id="图层 1">
                    <g id="&lt;Group&gt;">
                        <text id="Do" style="transform: matrix(16,0,0,16,418.182,152.629)">
                            <tspan x="0" y="0" class="t0" dx="0">D</tspan>
                            <tspan y="0" class="t0">o</tspan>
                        </text>
                        <text id="w" style="transform: matrix(16,0,0,16,559.854,152.629)">
                            <tspan x="0" y="0" class="t0">w</tspan>
                        </text>
                        <text id="n" style="transform: matrix(16,0,0,16,643.815,152.629)">
                            <tspan x="0" y="0" class="t0">n</tspan>
                        </text>
                        <text id="lo" style="transform: matrix(16,0,0,16,708.346,152.629)">
                            <tspan x="0" y="0" class="t0" dx="0">l</tspan>
                            <tspan y="0" class="t0">o</tspan>
                        </text>
                        <text id="a" style="transform: matrix(16,0,0,16,800.315,152.629)">
                            <tspan x="0" y="0" class="t0">a</tspan>
                        </text>
                        <text id="d" style="transform: matrix(16,0,0,16,857.073,152.629)">
                            <tspan x="0" y="0" class="t0">d</tspan>
                        </text>
                        <text id=" " style="transform: matrix(16,0,0,16,1148.495,390.629)">
                            <tspan x="0" y="0" class="t0"> </tspan>
                        </text>
                        <text id="f" style="transform: matrix(16,0,0,16,946.104,152.629)">
                            <tspan x="0" y="0" class="t0">f</tspan>
                        </text>
                        <text id="r" style="transform: matrix(16,0,0,16,980.721,152.629)">
                            <tspan x="0" y="0" class="t0">r</tspan>
                        </text>
                        <text id="om" style="transform: matrix(16,0,0,16,1016.995,152.629)">
                            <tspan x="0" y="0" class="t0" dx="0">o</tspan>
                            <tspan y="0" class="t0">m</tspan>
                        </text>
                        <path id="&lt;Path&gt;" class="s1" d="m0.1 402.6v-409.6h1576.9v409.6" />
                        <g id="&lt;Clip Group&gt;" clip-path="url(#cp1)">
                            <path id="&lt;Compound Path&gt;" fill-rule="evenodd" class="s2"
                                d="m138.6 126.1v-39.4c0-33.6 20.1-38.6 39.9-43.1 36.8-8.4 44.7 10.8 44.8 36.5v29.1l-8 1.6v-31.4c0-13.6-2.2-34.9-35.1-27.1-22 5.1-33.8 12.2-33.6 35.2v37zm121.1-29.3v5.1l-8 1.6v-6.7c0-18.1 0.4-26.8-20.7-23.8-0.2-2.9-0.7-5.6-1.2-8.1 25.5-3.8 29.9 3.7 29.9 31.9zm-53.4-26.4q0.8 3.4 0.9 8.4c-11.8 5.1-16.3 8.7-16.1 26.2v10.7l-8.1 1.6v-12.4c0-25.7 9.9-29.8 23.3-34.5zm138.2 49.4v218l-44.4 16.1-222.1-44.4v-161.5l222.1-44.4zm-101.1 108.5h-62.1v48.3l62.1 9zm-68.3-50.8l-49.3 7v37.6h49.3zm0 50.8h-49.3v40.9l49.3 7zm68.3-60.3l-62.1 9.1v45h62.1z" />
                        </g>
                        <text id="Do" style="transform: matrix(16,0,0,16,418.182,152.629)">
                            <tspan x="0" y="0" class="t0" dx="0">D</tspan>
                            <tspan y="0" class="t0">o</tspan>
                        </text>
                        <text id="w" style="transform: matrix(16,0,0,16,559.854,152.629)">
                            <tspan x="0" y="0" class="t0">w</tspan>
                        </text>
                        <text id="n" style="transform: matrix(16,0,0,16,643.815,152.629)">
                            <tspan x="0" y="0" class="t0">n</tspan>
                        </text>
                        <text id="lo" style="transform: matrix(16,0,0,16,708.346,152.629)">
                            <tspan x="0" y="0" class="t0" dx="0">l</tspan>
                            <tspan y="0" class="t0">o</tspan>
                        </text>
                        <text id="a" style="transform: matrix(16,0,0,16,800.315,152.629)">
                            <tspan x="0" y="0" class="t0">a</tspan>
                        </text>
                        <text id="d" style="transform: matrix(16,0,0,16,857.073,152.629)">
                            <tspan x="0" y="0" class="t0">d</tspan>
                        </text>
                        <text id=" " style="transform: matrix(16,0,0,16,1148.495,390.629)">
                            <tspan x="0" y="0" class="t0"> </tspan>
                        </text>
                        <text id="f" style="transform: matrix(16,0,0,16,946.104,152.629)">
                            <tspan x="0" y="0" class="t0">f</tspan>
                        </text>
                        <text id="r" style="transform: matrix(16,0,0,16,980.721,152.629)">
                            <tspan x="0" y="0" class="t0">r</tspan>
                        </text>
                        <text id="om" style="transform: matrix(16,0,0,16,1016.995,152.629)">
                            <tspan x="0" y="0" class="t0" dx="0">o</tspan>
                            <tspan y="0" class="t0">m</tspan>
                        </text>
                        <path id="&lt;Path&gt;" class="s3" d="m0.1 402.6v-409.6h1576.9v409.6" />
                        <g id="&lt;Clip Group&gt;" clip-path="url(#cp2)">
                            <path id="&lt;Compound Path&gt;" fill-rule="evenodd" class="s2"
                                d="m138.6 126.1v-39.4c0-33.6 20.1-38.6 39.9-43.1 36.8-8.4 44.7 10.8 44.8 36.5v29.1l-8 1.6v-31.4c0-13.6-2.2-34.9-35.1-27.1-22 5.1-33.8 12.2-33.6 35.2v37zm121.1-29.3v5.1l-8 1.6v-6.7c0-18.1 0.4-26.8-20.7-23.8-0.2-2.9-0.7-5.6-1.2-8.1 25.5-3.8 29.9 3.7 29.9 31.9zm-53.4-26.4q0.8 3.4 0.9 8.4c-11.8 5.1-16.3 8.7-16.1 26.2v10.7l-8.1 1.6v-12.4c0-25.7 9.9-29.8 23.3-34.5zm138.2 49.4v218l-44.4 16.1-222.1-44.4v-161.5l222.1-44.4zm-101.1 108.5h-62.1v48.3l62.1 9zm-68.3-50.8l-49.3 7v37.6h49.3zm0 50.8h-49.3v40.9l49.3 7zm68.3-60.3l-62.1 9.1v45h62.1z" />
                            <path id="&lt;Compound Path&gt;" fill-rule="evenodd" class="s2"
                                d="m495.1 109.6q0 12.4-5.4 21.9-5.5 9.5-15.5 14.6-10 5.1-22.9 5.1h-21.4v-81.2h22.4c28.5 0 42.8 13.2 42.8 39.6zm-9.9 0.2q0-31.2-33.2-31.2h-12.6v64h12q16.1 0 24.9-8.6 8.9-8.5 8.9-24.2zm77.3 12.2c0 9.2-2.6 16.6-7.8 22.2-5.2 5.6-12.2 8.4-21 8.4q-12.9 0-20.6-8.2-7.6-8.1-7.6-21.5c0-9.6 2.6-17.2 7.8-22.7q7.9-8.4 21.7-8.4 12.9 0 20.2 8.1 7.3 8.1 7.3 22.1zm-9.5 0.3q0-10.9-4.8-16.7-4.8-5.9-13.9-5.8-8.9-0.1-14.1 5.9-5.2 6-5.2 16.8c0 7 1.7 12.4 5.2 16.3q5.3 5.9 14.1 5.9 9.1 0 13.9-5.8 4.8-5.8 4.8-16.6zm96.9-29.1l-17.3 58h-9.7l-11.9-41.5q-0.6-2.1-0.9-5.3h-0.2q-0.2 2-1.2 5.2l-13 41.6h-9.3l-17.5-58h9.8l11.9 43.6q0.6 2.3 0.8 5.2h0.5c0-1.4 0.4-3.2 1-5.3l13.3-43.5h8.5l12.1 43.7q0.6 2.3 0.8 5.3h0.4c0.1-1.9 0.4-3.6 0.9-5.3l11.9-43.7zm58.9 58h-9.3v-33.1q0-18.4-13.4-18.3-6.9 0-11.5 5.1-4.6 5.2-4.6 13.2v33.1h-9.3v-58h9.3v9.7h0.2q6.5-11.1 19-11.1 9.6 0 14.6 6.3 5 6.2 5 17.6zm26.8 0h-9.3v-85.8h9.3zm71.4-29.2c0 9.2-2.6 16.6-7.8 22.2-5.2 5.6-12.2 8.4-21 8.4q-12.9 0-20.6-8.2-7.6-8.2-7.6-21.5c0-9.6 2.6-17.2 7.8-22.7q7.9-8.4 21.7-8.4c8.6 0 15.4 2.7 20.2 8.1q7.3 8.1 7.3 22.1zm-9.5 0.3q0-10.9-4.8-16.7-4.9-5.9-13.9-5.9-8.9 0-14.1 6-5.2 6-5.2 16.8c0 7 1.7 12.4 5.2 16.3q5.3 5.9 14.1 5.9 9.1 0 13.9-5.8 4.8-5.8 4.8-16.6zm65 28.9h-9.3v-9.1h-0.2c-4.1 7-10 10.5-17.9 10.5q-8.4 0-13.4-4.5-5-4.6-5-12.3 0-16.2 19.1-18.9l17.4-2.4q0-14.7-12-14.8-10.4 0-18.9 7.1v-9.5q2.6-1.9 8.7-3.7 6.2-1.8 11-1.8 20.4 0 20.5 21.7zm-9.3-29.3l-14.1 2q-7.2 1-10 3.4-2.9 2.4-2.9 7.8 0 4.3 3.1 7 3.1 2.6 8 2.6 6.9 0 11.4-4.9 4.5-4.8 4.5-12.1zm75.8 29.3h-9.3v-9.9h-0.2c-4.3 7.5-11 11.3-20 11.3q-10.9 0-17.5-7.9-6.5-7.9-6.5-21.1 0-14.4 7.2-23.1 7.3-8.7 19.4-8.7 11.9 0 17.4 9.4h0.2v-35.8h9.3zm-9.3-26.2v-8.6q0-7.2-4.8-11.9-4.8-4.8-11.6-4.8-8.4 0-13.3 6.2-4.9 6.2-4.9 17.2-0.1 9.9 4.6 15.8 4.6 5.8 12.5 5.8 7.6 0 12.6-5.6 4.9-5.5 4.9-14.1zm83.7-51.5q-2.7-1.5-6.2-1.5-9.7 0-9.7 12.3v8.9h13.6v7.9h-13.6v50.1h-9.3v-50.1h-9.8v-7.9h9.8v-9.4c0-5.9 1.8-10.7 5.2-14.3q5.2-5.4 13.3-5.4 4.2 0 6.7 1zm37.9 29.1q-2.5-1.9-7.1-1.9-6.2 0-10 5.8-3.9 5.8-3.9 15.1v29.6h-9.2v-58h9.2v12h0.3q1.9-6 5.9-9.5 4-3.5 9.2-3.5 3.7 0 5.6 0.8zm61.3 19.3c0 9.2-2.7 16.7-7.9 22.2-5.2 5.6-12.2 8.5-21 8.5-8.6 0-15.4-2.8-20.5-8.2q-7.7-8.2-7.7-21.6c0-9.5 2.6-17.1 7.9-22.7q7.8-8.3 21.7-8.3 12.9-0.1 20.2 8 7.3 8.1 7.3 22.1zm-9.5 0.4q0-11-4.9-16.8-4.8-5.8-13.8-5.8-9 0-14.2 5.9-5.2 6-5.2 16.9c0 6.9 1.8 12.3 5.2 16.3q5.3 5.8 14.2 5.8 9 0 13.8-5.7 4.9-5.8 4.9-16.6zm106.2 28.8h-9.3v-33.3q0-9.7-3-13.9-3-4.2-10-4.2-5.9 0-10.1 5.4-4.1 5.4-4.2 13v33h-9.2v-34.4q0-17-13.2-17-6.2 0-10.1 5.1-4 5.1-4 13.3v33h-9.3v-57.9h9.3v9.1h0.3q6.1-10.5 17.9-10.5 5.7 0 10.2 3.1 4.5 3.2 6.3 8.9 6.4-12 19.2-12 19.2-0.1 19.2 23.6z" />
                            <path id="&lt;Compound Path&gt;" fill-rule="evenodd" class="s2"
                                d="m578.4 203.3l-34.2 120.9h-16.6l-24.9-88.4q-1.4-5-1.8-12.2h-0.3q-0.7 6.2-2.3 12l-25.1 88.6h-16.4l-35.3-120.9h15.5l25.7 92.8q1.6 6.1 2.1 12.1h0.4c0.2-3.4 1.1-7.4 2.5-12.1l26.8-92.8h13.6l25.6 93.5q1.4 5.2 2 11.2h0.4q0.4-4.4 2.2-11.6l24.7-93.1zm27.5 6.2q0 3.9-2.7 6.5c-1.8 1.7-3.9 2.5-6.4 2.5q-3.8 0-6.4-2.5-2.7-2.5-2.7-6.5 0.1-3.6 2.6-6.3c1.7-1.7 3.9-2.7 6.5-2.7 2.6 0 4.7 0.9 6.5 2.7q2.6 2.6 2.6 6.3zm-2.4 114.7h-13.8v-86.3h13.8zm92.6 0h-13.8v-49.2q0-27.5-20.1-27.5-10.2 0-17 7.8-6.9 7.7-6.9 19.7v49.2h-13.8v-86.4h13.8v14.4h0.3c6.5-11 15.9-16.4 28.3-16.4q14.3 0 21.8 9.2 7.4 9.3 7.4 26.3zm96 0h-13.9v-14.6h-0.3q-9.6 16.8-29.7 16.7-16.3 0-26-11.7-9.7-11.8-9.7-31.4 0-21.4 10.7-34.4 10.8-13 28.8-13 17.7 0 25.9 14h0.3v-53.4h13.9zm-13.9-39v-12.8q0-10.6-7.1-17.8-7.1-7-17.3-7.1-12.5 0.1-19.8 9.3-7.4 9.2-7.4 25.6 0.1 14.8 7 23.5 6.9 8.6 18.6 8.6c7.6 0 13.8-2.7 18.7-8.3 4.9-5.4 7.3-12.5 7.3-21zm116-4.5q0 20.6-11.7 33.1c-7.8 8.4-18.2 12.5-31.3 12.5q-19.2 0-30.6-12.2-11.4-12.1-11.4-32 0-21.5 11.7-33.9 11.7-12.4 32.3-12.4 19.2 0 30.1 12 10.9 12 10.9 32.9zm-14.2 0.5q0-16.2-7.2-25-7.2-8.6-20.6-8.7-13.3 0.1-21.1 9-7.8 8.9-7.8 25 0.1 15.6 7.9 24.3 7.7 8.7 21 8.7c9 0 15.9-2.9 20.6-8.6q7.2-8.6 7.2-24.7zm140-43.3l-25.9 86.3h-14.3l-17.8-61.8q-0.9-3.2-1.3-7.9h-0.4q-0.2 2.9-1.7 7.7l-19.3 62h-13.9l-26-86.3h14.5l17.8 64.9c0.5 2.2 0.9 4.8 1.1 7.8h0.7q0.2-3.3 1.6-8l19.8-64.7h12.7l17.9 65.1c0.6 2.1 1 4.7 1.2 7.7h0.7q0.2-4 1.4-7.7l17.6-65.1zm58.9 63.2q0 11.2-8.7 18.2-8.6 7-22.9 7-12.3 0-21.4-5.2v-14.9q10.1 8.3 22.4 8.3c10.9 0 16.4-4 16.4-12q0-4.9-3.2-8-3.2-3.1-14.6-8.3-11.4-4.9-16.2-10.5-4.7-5.6-4.7-14.9 0-10.7 8.6-17.9 8.6-7.1 21.9-7.1 10.2 0 18.4 4v13.9c-5.6-4.1-12.1-6.2-19.5-6.2-4.6 0-8.3 1.2-11 3.4-2.8 2.3-4.2 5.2-4.2 8.7 0 3.9 1.1 6.8 3.2 8.8 2.1 2.1 6.5 4.5 13.2 7.3q12.3 5.2 17.3 11c3.3 3.8 5 8.6 5 14.4z" />
                            <path id="&lt;Compound Path&gt;" fill-rule="evenodd" class="s2"
                                d="m1201.9 293.7q0 15.3-10.8 24-10.7 8.7-29.3 8.7-6.7 0-15.2-2.3c-5.7-1.5-9.7-3-12-4.6v-16.8q5.1 4.6 13.5 7.7 8.4 3.1 15.7 3.1 23.2 0 23.2-18.1c0-5.1-1.6-9.4-5-13q-4.9-5.4-20.4-14.3-14.9-8.4-20.9-16-6-7.6-6-18.5 0-14.3 10.7-23.3 10.8-9 27.7-9 16.3 0 23.8 4.3v15.9q-9.5-7.5-24.6-7.5-10 0-16.3 5.1-6.4 5-6.4 13.2 0 6 1.9 9.7 1.9 3.6 6.4 7.1 4.5 3.6 15.2 9.6 16 8.9 22.4 16.8 6.4 7.9 6.4 18.2zm57.2 29.7q-5 2.8-13 2.8-22.6 0-22.6-25.5v-51.1h-14.8v-11.7h14.8v-21.1l13.8-4.4v25.5h21.8v11.7h-21.8v48.8q0 8.6 3 12.3 2.9 3.7 9.8 3.7c3.5 0 6.4-0.9 9-2.8zm95.3-42.7q0 20.6-11.7 33.1-11.6 12.5-31.3 12.5-19.1 0-30.6-12.1-11.4-12.2-11.4-32.1 0-21.5 11.7-33.9 11.8-12.4 32.3-12.4 19.2 0 30.1 12 10.9 12 10.9 32.9zm-14.2 0.5q0-16.2-7.2-24.9-7.2-8.7-20.6-8.7-13.3 0-21.1 8.9-7.7 8.9-7.7 25.1 0 15.5 7.8 24.2 7.8 8.7 21 8.7 13.5 0 20.7-8.6 7.1-8.6 7.1-24.7zm73.7-29.3q-3.7-2.8-10.5-2.8-9.2 0-14.9 8.6-5.8 8.7-5.8 22.5v44h-13.8v-86.3h13.8v17.8h0.4q2.8-9 8.8-14.1 6-5.2 13.8-5.2 5.4 0 8.2 1.2zm83.3 32.6h-60.9q0.3 14.6 7.7 22.3 7.4 7.7 20.4 7.7 14.7 0 26.8-9.4v12.9q-11.3 8.3-30 8.3-18.5 0-28.9-11.9-10.4-11.9-10.4-33 0-12.8 5.2-23.4 5.2-10.6 14.3-16.4 9.1-5.8 20.2-5.8 16.8 0 26.2 10.9 9.4 10.9 9.4 30.6zm-14.1-11.7q-0.2-12-5.8-18.6-5.6-6.7-15.8-6.7-9.6 0-16.5 7-6.8 6.9-8.6 18.3z" />
                        </g>
                    </g>
                </g>
            </svg>